<?xml version="1.0" encoding="UTF-8"?>
<svg id="Capa_2" data-name="Capa 2" xmlns="http://www.w3.org/2000/svg" xmlns:xlink="http://www.w3.org/1999/xlink" viewBox="0 0 299.12 299.26">
  <defs>
    <style>
      .cls-1 {
        fill: #a6a6a6;
      }

      .cls-1, .cls-2, .cls-3, .cls-4, .cls-5, .cls-6, .cls-7, .cls-8 {
        stroke-width: 0px;
      }

      .cls-2 {
        fill: #737373;
      }

      .cls-3 {
        fill: #000;
      }

      .cls-4 {
        fill: #595959;
      }

      .cls-5 {
        fill: #404040;
      }

      .cls-6 {
        fill: url(#Degradado_sin_nombre_43);
      }

      .cls-7 {
        fill: #262626;
      }

      .cls-8 {
        fill: #8c8c8c;
      }
    </style>
    <radialGradient id="Degradado_sin_nombre_43" data-name="Degradado sin nombre 43" cx="149.82" cy="149.73" fx="149.82" fy="149.73" r="43.38" gradientUnits="userSpaceOnUse">
      <stop offset="0" stop-color="#fff"/>
      <stop offset=".26" stop-color="#ededed"/>
      <stop offset=".51" stop-color="#292927"/>
      <stop offset="1" stop-color="#1d1d1b"/>
    </radialGradient>
  </defs>
  <g id="Capa_1-2" data-name="Capa 1">
    <g>
      <path class="cls-3" d="M150.02,6.9c78.54.17,142.81,64.74,142.53,143.18-.28,78.36-64.69,142.94-142.75,142.33-78.92-.62-142.32-63.01-142.48-142.55C7.17,70.51,70.64,7.66,150.02,6.9ZM150.06,19.97c-71.43-.08-129.4,57.77-129.75,129.52-.35,71.26,57.58,129.61,129.48,129.85,70.31.23,129.72-56.51,129.85-129.6.13-72.02-58.42-129.59-129.58-129.77Z"/>
      <path class="cls-3" d="M285.99,51.45v-31.06c0-3.62-2.93-6.55-6.55-6.55h-31.38c-3.62,0-6.55-2.93-6.55-6.55v-.49c0-3.62,2.93-6.55,6.55-6.55h44.49c3.62,0,6.55,2.93,6.55,6.55v44.66c0,3.62-2.93,6.55-6.55,6.55h0c-3.62,0-6.55-2.93-6.55-6.55Z"/>
      <path class="cls-3" d="M6.96,241.22c3.65,0,6.61,2.96,6.6,6.61-.01,9.53-.04,18.97.02,28.4.08,11.09-1.5,9.47,9.46,9.55,9.46.07,18.93.04,28.55.02,3.65,0,6.61,2.95,6.61,6.6v.24c0,3.65-2.96,6.6-6.6,6.6H6.96c-3.65,0-6.6-2.96-6.6-6.6v-44.83c0-3.65,2.96-6.6,6.6-6.6h0Z"/>
      <path class="cls-3" d="M292.42,299.26h-44.34c-3.7,0-6.7-3-6.7-6.7h0c0-3.7,3-6.7,6.7-6.7h30.74c3.7,0,6.7-3,6.7-6.7v-31.16c0-3.7,3-6.7,6.7-6.7h.2c3.7,0,6.7,3,6.7,6.7v44.56c0,3.7-3,6.7-6.7,6.7Z"/>
      <path class="cls-3" d="M6.67,0h44.78c3.68,0,6.67,2.99,6.67,6.67h0c0,3.68-2.99,6.67-6.67,6.67h-30.96c-3.68,0-6.67,2.99-6.67,6.67v31.67c0,3.69-3,6.68-6.69,6.67-1.6,0-3.15-.04-4.69-.16-.87-.07-2.33-1.53-2.33-2.36C-.01,39.55,0,23.27,0,6.67,0,2.99,2.99,0,6.67,0Z"/>
      <path class="cls-6" d="M190.55,149.54c0,6.5-.16,13,.07,19.49.1,3.01-.73,4.77-3.47,6.3-11.48,6.4-22.77,13.16-34.27,19.53-1.5.83-4.22.93-5.68.12-11.79-6.53-23.48-13.26-35.02-20.22-1.56-.94-2.95-3.56-2.98-5.43-.26-13.16-.26-26.32,0-39.48.04-1.84,1.52-4.39,3.1-5.34,11.41-6.87,22.95-13.52,34.62-19.94,1.59-.88,4.52-.83,6.13.05,11.52,6.35,22.8,13.11,34.28,19.54,2.54,1.43,3.38,3.08,3.3,5.9-.19,6.49-.06,12.99-.06,19.49h-.02Z"/>
      <path class="cls-5" d="M108.58,190.25c36.87,21.97,73.28,41.78,114.97,52.4-3,2.3-5.29,4.31-7.83,5.96-22.55,14.7-47.32,21.19-74.16,19.81-3.3-.17-6.58-.77-9.86-1.23-2.68-.38-4.26-1.68-5-4.57-5.68-21.98-11.56-43.92-17.31-65.88-.45-1.72-.46-3.56-.81-6.49Z"/>
      <path class="cls-4" d="M95.94,128.1c-1.36,42.9-1.06,84.35,9.84,125.97-3.46-1.51-6.33-2.54-9-3.96-23.78-12.61-41.46-31.14-53.25-55.29-1.45-2.97-2.51-6.13-3.7-9.22-.97-2.53-.59-4.54,1.58-6.59,16.48-15.62,32.82-31.38,49.25-47.05,1.29-1.23,2.89-2.13,5.28-3.85Z"/>
      <path class="cls-2" d="M137.84,93.1c-37.79,20.35-73.49,41.41-104.03,71.72-.43-3.75-.98-6.76-1.09-9.78-1.02-26.9,6.13-51.48,21.11-73.8,1.84-2.74,4.04-5.25,6.12-7.83,1.7-2.11,3.63-2.79,6.49-1.94,21.78,6.42,43.61,12.65,65.42,18.99,1.71.5,3.29,1.43,5.98,2.64Z"/>
      <path class="cls-8" d="M190.63,109.91c-37.29-21.26-74.07-40.37-115.96-50.19,2.95-2.35,5.21-4.41,7.71-6.11,22.26-15.13,46.91-22.09,73.77-21.23,3.3.11,6.59.64,9.88,1.04,2.69.33,4.29,1.6,5.09,4.48,6.1,21.87,12.4,43.69,18.57,65.54.48,1.71.53,3.55.94,6.47Z"/>
      <path class="cls-1" d="M201.38,167.01c2.45-42.85,3.2-84.29-6.63-126.18,3.42,1.6,6.27,2.7,8.9,4.19,23.45,13.21,40.65,32.18,51.83,56.63,1.37,3,2.36,6.19,3.46,9.31.9,2.55.47,4.55-1.74,6.55-16.87,15.19-33.61,30.54-50.43,45.79-1.32,1.2-2.94,2.05-5.38,3.72Z"/>
      <path class="cls-7" d="M267.72,131.74c2.73,16.69,1.57,31.99-2.24,47.1-4.08,16.19-11.55,30.74-21.71,43.99-2.06,2.69-3.8,3.74-7.33,2.75-22.69-6.32-45.45-12.39-68.18-18.56-.75-.2-1.42-.71-3.02-1.55,36.81-20.95,72.45-42.5,102.49-73.73Z"/>
    </g>
  </g>
</svg>